<?xml version="1.0" encoding="UTF-8" standalone="no"?>
<svg height="512" id="svg1" version="1.1" viewBox="0 0 512 512" width="512" xmlns="http://www.w3.org/2000/svg" xml:space="preserve"><defs
   id="defs1" />
    <path style="fill:#ffffff;stroke-width:0.264568"
        d="m 152.28952,298.99223 42.33081,-56.35288 q 1.58741,-2.11654 3.83623,-3.17481 2.24883,-1.05827 4.62994,-1.05827 2.3811,0 4.62993,1.05827 2.24882,1.05827 3.83623,3.17481 l 35.98117,47.88672 q 1.58741,2.11653 3.70396,3.1748 2.11654,1.05827 4.76221,1.05827 6.61419,0 9.52444,-5.95277 2.91024,-5.95276 -1.05828,-11.24412 l -26.98589,-35.71661 31.21898,-41.53711 q 1.5874,-2.11653 3.83622,-3.1748 2.24883,-1.05827 4.62994,-1.05827 2.3811,0 4.62993,1.05827 2.24882,1.05827 3.83623,3.1748 l 74.07891,98.6837 q 3.9685,5.29135 1.05827,11.11183 -2.91026,5.82048 -9.52443,5.82048 H 160.75568 q -6.61419,0 -9.52443,-5.82048 -2.91023,-5.82049 1.05827,-11.11183 z"
        id="path1" /></svg>
